<mxfile host="Electron" agent="Mozilla/5.0 (Windows NT 10.0; Win64; x64) AppleWebKit/537.36 (KHTML, like Gecko) draw.io/24.7.17 Chrome/128.0.6613.36 Electron/32.0.1 Safari/537.36" version="24.7.17">
  <diagram name="Page-1" id="2YBvvXClWsGukQMizWep">
    <mxGraphModel dx="1982" dy="530" grid="1" gridSize="10" guides="1" tooltips="1" connect="1" arrows="1" fold="1" page="1" pageScale="1" pageWidth="850" pageHeight="1100" math="0" shadow="0">
      <root>
        <mxCell id="0" />
        <mxCell id="1" parent="0" />
        <mxCell id="smsOg0GnQyqO6J8U3x3V-1" value="MultiplicationTable.render" style="rounded=1;whiteSpace=wrap;html=1;" vertex="1" parent="1">
          <mxGeometry x="120" y="50" width="170" height="400" as="geometry" />
        </mxCell>
        <mxCell id="smsOg0GnQyqO6J8U3x3V-2" value="isInputValid" style="rounded=1;whiteSpace=wrap;html=1;" vertex="1" parent="1">
          <mxGeometry x="420" y="50" width="120" height="160" as="geometry" />
        </mxCell>
        <mxCell id="smsOg0GnQyqO6J8U3x3V-3" value="" style="endArrow=classic;html=1;rounded=0;entryX=0;entryY=0.25;entryDx=0;entryDy=0;" edge="1" parent="1" target="smsOg0GnQyqO6J8U3x3V-2">
          <mxGeometry width="50" height="50" relative="1" as="geometry">
            <mxPoint x="299" y="90" as="sourcePoint" />
            <mxPoint x="419.99999999999994" y="100.19000000000005" as="targetPoint" />
          </mxGeometry>
        </mxCell>
        <mxCell id="smsOg0GnQyqO6J8U3x3V-4" value="start: number&lt;div&gt;end: number&lt;/div&gt;" style="edgeLabel;html=1;align=center;verticalAlign=middle;resizable=0;points=[];" vertex="1" connectable="0" parent="smsOg0GnQyqO6J8U3x3V-3">
          <mxGeometry x="-0.0218" y="3" relative="1" as="geometry">
            <mxPoint as="offset" />
          </mxGeometry>
        </mxCell>
        <mxCell id="smsOg0GnQyqO6J8U3x3V-5" value="" style="endArrow=classic;html=1;rounded=0;exitX=0;exitY=0.75;exitDx=0;exitDy=0;entryX=1.021;entryY=0.297;entryDx=0;entryDy=0;entryPerimeter=0;" edge="1" parent="1" source="smsOg0GnQyqO6J8U3x3V-2" target="smsOg0GnQyqO6J8U3x3V-1">
          <mxGeometry width="50" height="50" relative="1" as="geometry">
            <mxPoint x="400" y="180" as="sourcePoint" />
            <mxPoint x="300" y="170" as="targetPoint" />
          </mxGeometry>
        </mxCell>
        <mxCell id="smsOg0GnQyqO6J8U3x3V-6" value="isValid: boolean" style="edgeLabel;html=1;align=center;verticalAlign=middle;resizable=0;points=[];" vertex="1" connectable="0" parent="smsOg0GnQyqO6J8U3x3V-5">
          <mxGeometry x="0.1875" y="-4" relative="1" as="geometry">
            <mxPoint x="11" as="offset" />
          </mxGeometry>
        </mxCell>
        <mxCell id="smsOg0GnQyqO6J8U3x3V-7" value="isStartSmallerThanEnd" style="rounded=1;whiteSpace=wrap;html=1;" vertex="1" parent="1">
          <mxGeometry x="660" y="60" width="150" height="60" as="geometry" />
        </mxCell>
        <mxCell id="smsOg0GnQyqO6J8U3x3V-15" style="edgeStyle=orthogonalEdgeStyle;rounded=0;orthogonalLoop=1;jettySize=auto;html=1;exitX=0;exitY=0.25;exitDx=0;exitDy=0;entryX=1.009;entryY=0.717;entryDx=0;entryDy=0;entryPerimeter=0;" edge="1" parent="1">
          <mxGeometry relative="1" as="geometry">
            <mxPoint x="541.0799999999999" y="190.00000000000003" as="targetPoint" />
            <mxPoint x="660" y="190.28" as="sourcePoint" />
          </mxGeometry>
        </mxCell>
        <mxCell id="smsOg0GnQyqO6J8U3x3V-35" value="isValid: boolean" style="edgeLabel;html=1;align=center;verticalAlign=middle;resizable=0;points=[];" vertex="1" connectable="0" parent="smsOg0GnQyqO6J8U3x3V-15">
          <mxGeometry x="0.0213" y="-1" relative="1" as="geometry">
            <mxPoint as="offset" />
          </mxGeometry>
        </mxCell>
        <mxCell id="smsOg0GnQyqO6J8U3x3V-8" value="isInRange" style="rounded=1;whiteSpace=wrap;html=1;" vertex="1" parent="1">
          <mxGeometry x="660" y="150" width="150" height="60" as="geometry" />
        </mxCell>
        <mxCell id="smsOg0GnQyqO6J8U3x3V-9" value="generateMultiplicationList" style="rounded=1;whiteSpace=wrap;html=1;" vertex="1" parent="1">
          <mxGeometry x="420" y="270" width="150" height="60" as="geometry" />
        </mxCell>
        <mxCell id="smsOg0GnQyqO6J8U3x3V-10" value="generateSingleMultiplication" style="rounded=1;whiteSpace=wrap;html=1;" vertex="1" parent="1">
          <mxGeometry x="720" y="270" width="160" height="60" as="geometry" />
        </mxCell>
        <mxCell id="smsOg0GnQyqO6J8U3x3V-11" value="renderTable" style="rounded=1;whiteSpace=wrap;html=1;" vertex="1" parent="1">
          <mxGeometry x="435" y="370" width="120" height="70" as="geometry" />
        </mxCell>
        <mxCell id="smsOg0GnQyqO6J8U3x3V-12" value="recordColumnLength" style="rounded=1;whiteSpace=wrap;html=1;" vertex="1" parent="1">
          <mxGeometry x="680" y="370" width="160" height="40" as="geometry" />
        </mxCell>
        <mxCell id="smsOg0GnQyqO6J8U3x3V-13" value="" style="endArrow=classic;html=1;rounded=0;entryX=0;entryY=0.25;entryDx=0;entryDy=0;exitX=1.021;exitY=0.156;exitDx=0;exitDy=0;exitPerimeter=0;" edge="1" parent="1" source="smsOg0GnQyqO6J8U3x3V-2" target="smsOg0GnQyqO6J8U3x3V-7">
          <mxGeometry width="50" height="50" relative="1" as="geometry">
            <mxPoint x="510" y="260" as="sourcePoint" />
            <mxPoint x="560" y="210" as="targetPoint" />
          </mxGeometry>
        </mxCell>
        <mxCell id="smsOg0GnQyqO6J8U3x3V-32" value="Text" style="edgeLabel;html=1;align=center;verticalAlign=middle;resizable=0;points=[];" vertex="1" connectable="0" parent="smsOg0GnQyqO6J8U3x3V-13">
          <mxGeometry x="-0.0395" y="2" relative="1" as="geometry">
            <mxPoint as="offset" />
          </mxGeometry>
        </mxCell>
        <mxCell id="smsOg0GnQyqO6J8U3x3V-33" value="start: number&lt;div&gt;end: number&lt;/div&gt;" style="edgeLabel;html=1;align=center;verticalAlign=middle;resizable=0;points=[];" vertex="1" connectable="0" parent="smsOg0GnQyqO6J8U3x3V-13">
          <mxGeometry x="0.0286" y="3" relative="1" as="geometry">
            <mxPoint as="offset" />
          </mxGeometry>
        </mxCell>
        <mxCell id="smsOg0GnQyqO6J8U3x3V-14" style="edgeStyle=orthogonalEdgeStyle;rounded=0;orthogonalLoop=1;jettySize=auto;html=1;exitX=0;exitY=0.75;exitDx=0;exitDy=0;entryX=1;entryY=0.348;entryDx=0;entryDy=0;entryPerimeter=0;" edge="1" parent="1" source="smsOg0GnQyqO6J8U3x3V-7" target="smsOg0GnQyqO6J8U3x3V-2">
          <mxGeometry relative="1" as="geometry" />
        </mxCell>
        <mxCell id="smsOg0GnQyqO6J8U3x3V-34" value="isValid: boolean" style="edgeLabel;html=1;align=center;verticalAlign=middle;resizable=0;points=[];" vertex="1" connectable="0" parent="smsOg0GnQyqO6J8U3x3V-14">
          <mxGeometry x="0.0053" y="1" relative="1" as="geometry">
            <mxPoint x="1" as="offset" />
          </mxGeometry>
        </mxCell>
        <mxCell id="smsOg0GnQyqO6J8U3x3V-16" value="" style="endArrow=classic;html=1;rounded=0;entryX=0;entryY=0.25;entryDx=0;entryDy=0;exitX=1.038;exitY=0.717;exitDx=0;exitDy=0;exitPerimeter=0;" edge="1" parent="1" source="smsOg0GnQyqO6J8U3x3V-2" target="smsOg0GnQyqO6J8U3x3V-8">
          <mxGeometry width="50" height="50" relative="1" as="geometry">
            <mxPoint x="540" y="250" as="sourcePoint" />
            <mxPoint x="590" y="200" as="targetPoint" />
          </mxGeometry>
        </mxCell>
        <mxCell id="smsOg0GnQyqO6J8U3x3V-36" value="num: number" style="edgeLabel;html=1;align=center;verticalAlign=middle;resizable=0;points=[];" vertex="1" connectable="0" parent="smsOg0GnQyqO6J8U3x3V-16">
          <mxGeometry x="-0.1687" y="-1" relative="1" as="geometry">
            <mxPoint as="offset" />
          </mxGeometry>
        </mxCell>
        <mxCell id="smsOg0GnQyqO6J8U3x3V-17" value="" style="endArrow=classic;html=1;rounded=0;entryX=0;entryY=0.25;entryDx=0;entryDy=0;exitX=1.011;exitY=0.588;exitDx=0;exitDy=0;exitPerimeter=0;" edge="1" parent="1" source="smsOg0GnQyqO6J8U3x3V-1" target="smsOg0GnQyqO6J8U3x3V-9">
          <mxGeometry width="50" height="50" relative="1" as="geometry">
            <mxPoint x="450" y="300" as="sourcePoint" />
            <mxPoint x="500" y="250" as="targetPoint" />
          </mxGeometry>
        </mxCell>
        <mxCell id="smsOg0GnQyqO6J8U3x3V-37" value="start: number&lt;div&gt;end: number&lt;/div&gt;" style="edgeLabel;html=1;align=center;verticalAlign=middle;resizable=0;points=[];" vertex="1" connectable="0" parent="smsOg0GnQyqO6J8U3x3V-17">
          <mxGeometry x="-0.1778" y="2" relative="1" as="geometry">
            <mxPoint x="5" as="offset" />
          </mxGeometry>
        </mxCell>
        <mxCell id="smsOg0GnQyqO6J8U3x3V-18" value="" style="endArrow=classic;html=1;rounded=0;exitX=0;exitY=0.75;exitDx=0;exitDy=0;entryX=1;entryY=0.663;entryDx=0;entryDy=0;entryPerimeter=0;" edge="1" parent="1" source="smsOg0GnQyqO6J8U3x3V-9" target="smsOg0GnQyqO6J8U3x3V-1">
          <mxGeometry width="50" height="50" relative="1" as="geometry">
            <mxPoint x="450" y="300" as="sourcePoint" />
            <mxPoint x="500" y="250" as="targetPoint" />
          </mxGeometry>
        </mxCell>
        <mxCell id="smsOg0GnQyqO6J8U3x3V-38" value="mulList: string[][]" style="edgeLabel;html=1;align=center;verticalAlign=middle;resizable=0;points=[];" vertex="1" connectable="0" parent="smsOg0GnQyqO6J8U3x3V-18">
          <mxGeometry x="0.1855" relative="1" as="geometry">
            <mxPoint x="7" as="offset" />
          </mxGeometry>
        </mxCell>
        <mxCell id="smsOg0GnQyqO6J8U3x3V-19" value="" style="endArrow=classic;html=1;rounded=0;exitX=1;exitY=0.25;exitDx=0;exitDy=0;entryX=0;entryY=0.25;entryDx=0;entryDy=0;" edge="1" parent="1" source="smsOg0GnQyqO6J8U3x3V-9" target="smsOg0GnQyqO6J8U3x3V-10">
          <mxGeometry width="50" height="50" relative="1" as="geometry">
            <mxPoint x="450" y="300" as="sourcePoint" />
            <mxPoint x="500" y="250" as="targetPoint" />
          </mxGeometry>
        </mxCell>
        <mxCell id="smsOg0GnQyqO6J8U3x3V-39" value="firstNum: number&lt;div&gt;secondNum: number&lt;/div&gt;" style="edgeLabel;html=1;align=center;verticalAlign=middle;resizable=0;points=[];" vertex="1" connectable="0" parent="smsOg0GnQyqO6J8U3x3V-19">
          <mxGeometry x="-0.2028" relative="1" as="geometry">
            <mxPoint x="10" as="offset" />
          </mxGeometry>
        </mxCell>
        <mxCell id="smsOg0GnQyqO6J8U3x3V-20" value="" style="endArrow=classic;html=1;rounded=0;exitX=0;exitY=0.75;exitDx=0;exitDy=0;entryX=1;entryY=0.75;entryDx=0;entryDy=0;" edge="1" parent="1" source="smsOg0GnQyqO6J8U3x3V-10" target="smsOg0GnQyqO6J8U3x3V-9">
          <mxGeometry width="50" height="50" relative="1" as="geometry">
            <mxPoint x="450" y="300" as="sourcePoint" />
            <mxPoint x="500" y="250" as="targetPoint" />
          </mxGeometry>
        </mxCell>
        <mxCell id="smsOg0GnQyqO6J8U3x3V-40" value="multiplication: string" style="edgeLabel;html=1;align=center;verticalAlign=middle;resizable=0;points=[];" vertex="1" connectable="0" parent="smsOg0GnQyqO6J8U3x3V-20">
          <mxGeometry x="0.0097" y="-2" relative="1" as="geometry">
            <mxPoint as="offset" />
          </mxGeometry>
        </mxCell>
        <mxCell id="smsOg0GnQyqO6J8U3x3V-21" value="" style="endArrow=classic;html=1;rounded=0;entryX=0;entryY=0.25;entryDx=0;entryDy=0;" edge="1" parent="1" target="smsOg0GnQyqO6J8U3x3V-12">
          <mxGeometry width="50" height="50" relative="1" as="geometry">
            <mxPoint x="555" y="380" as="sourcePoint" />
            <mxPoint x="615" y="380" as="targetPoint" />
          </mxGeometry>
        </mxCell>
        <mxCell id="smsOg0GnQyqO6J8U3x3V-43" value="row: string[]" style="edgeLabel;html=1;align=center;verticalAlign=middle;resizable=0;points=[];" vertex="1" connectable="0" parent="smsOg0GnQyqO6J8U3x3V-21">
          <mxGeometry x="-0.1842" relative="1" as="geometry">
            <mxPoint x="4" as="offset" />
          </mxGeometry>
        </mxCell>
        <mxCell id="smsOg0GnQyqO6J8U3x3V-22" value="" style="endArrow=classic;html=1;rounded=0;exitX=0;exitY=0.75;exitDx=0;exitDy=0;" edge="1" parent="1" source="smsOg0GnQyqO6J8U3x3V-12">
          <mxGeometry width="50" height="50" relative="1" as="geometry">
            <mxPoint x="615" y="400" as="sourcePoint" />
            <mxPoint x="555" y="400" as="targetPoint" />
          </mxGeometry>
        </mxCell>
        <mxCell id="smsOg0GnQyqO6J8U3x3V-46" value="colLen: number[]" style="edgeLabel;html=1;align=center;verticalAlign=middle;resizable=0;points=[];" vertex="1" connectable="0" parent="smsOg0GnQyqO6J8U3x3V-22">
          <mxGeometry x="0.1092" y="1" relative="1" as="geometry">
            <mxPoint x="10" as="offset" />
          </mxGeometry>
        </mxCell>
        <mxCell id="smsOg0GnQyqO6J8U3x3V-23" value="" style="endArrow=classic;html=1;rounded=0;exitX=1.004;exitY=0.849;exitDx=0;exitDy=0;entryX=0;entryY=0.25;entryDx=0;entryDy=0;exitPerimeter=0;" edge="1" parent="1" source="smsOg0GnQyqO6J8U3x3V-1" target="smsOg0GnQyqO6J8U3x3V-11">
          <mxGeometry width="50" height="50" relative="1" as="geometry">
            <mxPoint x="330" y="389.57" as="sourcePoint" />
            <mxPoint x="420" y="389.57" as="targetPoint" />
          </mxGeometry>
        </mxCell>
        <mxCell id="smsOg0GnQyqO6J8U3x3V-41" value="mulList: string[][]" style="edgeLabel;html=1;align=center;verticalAlign=middle;resizable=0;points=[];" vertex="1" connectable="0" parent="smsOg0GnQyqO6J8U3x3V-23">
          <mxGeometry x="-0.0969" y="1" relative="1" as="geometry">
            <mxPoint as="offset" />
          </mxGeometry>
        </mxCell>
        <mxCell id="smsOg0GnQyqO6J8U3x3V-24" value="" style="endArrow=classic;html=1;rounded=0;exitX=0.011;exitY=0.674;exitDx=0;exitDy=0;entryX=1.008;entryY=0.924;entryDx=0;entryDy=0;entryPerimeter=0;exitPerimeter=0;" edge="1" parent="1" source="smsOg0GnQyqO6J8U3x3V-11" target="smsOg0GnQyqO6J8U3x3V-1">
          <mxGeometry width="50" height="50" relative="1" as="geometry">
            <mxPoint x="420" y="419.57" as="sourcePoint" />
            <mxPoint x="330" y="419.57" as="targetPoint" />
          </mxGeometry>
        </mxCell>
        <mxCell id="smsOg0GnQyqO6J8U3x3V-42" value="multiplicationTable: string" style="edgeLabel;html=1;align=center;verticalAlign=middle;resizable=0;points=[];" vertex="1" connectable="0" parent="smsOg0GnQyqO6J8U3x3V-24">
          <mxGeometry x="0.0737" y="-2" relative="1" as="geometry">
            <mxPoint x="11" as="offset" />
          </mxGeometry>
        </mxCell>
        <mxCell id="smsOg0GnQyqO6J8U3x3V-25" value="" style="endArrow=classic;html=1;rounded=0;entryX=0;entryY=0.25;entryDx=0;entryDy=0;" edge="1" parent="1">
          <mxGeometry width="50" height="50" relative="1" as="geometry">
            <mxPoint x="-40" y="120" as="sourcePoint" />
            <mxPoint x="120" y="120" as="targetPoint" />
          </mxGeometry>
        </mxCell>
        <mxCell id="smsOg0GnQyqO6J8U3x3V-28" value="start: number&lt;div&gt;end: number&lt;/div&gt;" style="edgeLabel;html=1;align=center;verticalAlign=middle;resizable=0;points=[];" vertex="1" connectable="0" parent="smsOg0GnQyqO6J8U3x3V-25">
          <mxGeometry x="-0.1939" relative="1" as="geometry">
            <mxPoint as="offset" />
          </mxGeometry>
        </mxCell>
        <mxCell id="smsOg0GnQyqO6J8U3x3V-26" value="" style="endArrow=classic;html=1;rounded=0;exitX=0;exitY=0.75;exitDx=0;exitDy=0;" edge="1" parent="1">
          <mxGeometry width="50" height="50" relative="1" as="geometry">
            <mxPoint x="120" y="389.38" as="sourcePoint" />
            <mxPoint x="-50" y="390" as="targetPoint" />
          </mxGeometry>
        </mxCell>
        <mxCell id="smsOg0GnQyqO6J8U3x3V-29" value="multiplicationTable: string" style="edgeLabel;html=1;align=center;verticalAlign=middle;resizable=0;points=[];" vertex="1" connectable="0" parent="smsOg0GnQyqO6J8U3x3V-26">
          <mxGeometry x="0.305" y="-1" relative="1" as="geometry">
            <mxPoint x="31" y="1" as="offset" />
          </mxGeometry>
        </mxCell>
      </root>
    </mxGraphModel>
  </diagram>
</mxfile>
